HIERARCHY
ROOT pelvis
{
  OFFSET 0.0122782 94.9974 -0.0187994
  CHANNELS 6 Xposition Yposition Zposition Zrotation Xrotation Yrotation
  JOINT spine_01
  {
    OFFSET 10.8089 -0.851403 0
    CHANNELS 3 Zrotation Xrotation Yrotation
    JOINT spine_02
    {
      OFFSET 18.8754 3.80116 0
      CHANNELS 3 Zrotation Xrotation Yrotation
      JOINT spine_03
      {
        OFFSET 13.4073 0.420477 0
        CHANNELS 3 Zrotation Xrotation Yrotation
        JOINT clavicle_l
        {
          OFFSET 11.8837 -2.73209 -3.78198
          CHANNELS 3 Zrotation Xrotation Yrotation
          JOINT upperarm_l
          {
            OFFSET 15.7849 0 0
            CHANNELS 3 Zrotation Xrotation Yrotation
            JOINT lowerarm_l
            {
              OFFSET 30.34 0 -2.4046e-05
              CHANNELS 3 Zrotation Xrotation Yrotation
              JOINT hand_l
              {
                OFFSET 26.9751 -1.53539e-05 0
                CHANNELS 3 Zrotation Xrotation Yrotation
                JOINT index_01_l
                {
                  OFFSET 12.0681 1.76346 -2.1094
                  CHANNELS 3 Zrotation Xrotation Yrotation
                  JOINT index_02_l
                  {
                    OFFSET 4.2875 0 0
                    CHANNELS 3 Zrotation Xrotation Yrotation
                    End Site
                    {
                      OFFSET 3.39379 0 0
                    }
                  }
                }
                JOINT middle_01_l
                {
                  OFFSET 12.2443 1.29364 0.571163
                  CHANNELS 3 Zrotation Xrotation Yrotation
                  JOINT middle_02_l
                  {
                    OFFSET 4.64038 0 0
                    CHANNELS 3 Zrotation Xrotation Yrotation
                    End Site
                    {
                      OFFSET 3.64884 0 0
                    }
                  }
                }
                JOINT pinky_01_l
                {
                  OFFSET 10.1407 2.26315 4.64315
                  CHANNELS 3 Zrotation Xrotation Yrotation
                  JOINT pinky_02_l
                  {
                    OFFSET 3.57098 0 0
                    CHANNELS 3 Zrotation Xrotation Yrotation
                    End Site
                    {
                      OFFSET 2.98563 0 0
                    }
                  }
                }
                JOINT ring_01_l
                {
                  OFFSET 11.4979 1.75352 2.84691
                  CHANNELS 3 Zrotation Xrotation Yrotation
                  JOINT ring_02_l
                  {
                    OFFSET 4.43018 1.174e-05 0
                    CHANNELS 3 Zrotation Xrotation Yrotation
                    End Site
                    {
                      OFFSET 3.47665 0 0
                    }
                  }
                }
                JOINT thumb_01_l
                {
                  OFFSET 4.76203 2.37498 -2.53782
                  CHANNELS 3 Zrotation Xrotation Yrotation
                  JOINT thumb_02_l
                  {
                    OFFSET 3.86967 0 0
                    CHANNELS 3 Zrotation Xrotation Yrotation
                    End Site
                    {
                      OFFSET 4.06217 0 0
                    }
                  }
                }
              }
              JOINT lowerarm_twist_01_l
              {
                OFFSET 14 0 0
                CHANNELS 3 Zrotation Xrotation Yrotation
                End Site
                {
                  OFFSET 0 0 0
                }
              }
            }
            JOINT upperarm_twist_01_l
            {
              OFFSET 0.5 0 0
              CHANNELS 3 Zrotation Xrotation Yrotation
              End Site
              {
                OFFSET 0 0 0
              }
            }
          }
        }
        JOINT clavicle_r
        {
          OFFSET 11.8838 -2.7321 3.782
          CHANNELS 3 Zrotation Xrotation Yrotation
          JOINT upperarm_r
          {
            OFFSET -15.7848 0 -2.0448e-05
            CHANNELS 3 Zrotation Xrotation Yrotation
            JOINT lowerarm_r
            {
              OFFSET -30.34 0 4.1807e-05
              CHANNELS 3 Zrotation Xrotation Yrotation
              JOINT hand_r
              {
                OFFSET -26.9752 2.61134e-05 0
                CHANNELS 3 Zrotation Xrotation Yrotation
                JOINT index_01_r
                {
                  OFFSET -12.0679 -1.76372 2.10943
                  CHANNELS 3 Zrotation Xrotation Yrotation
                  JOINT index_02_r
                  {
                    OFFSET -4.2877 8.86285e-05 -7.3681e-05
                    CHANNELS 3 Zrotation Xrotation Yrotation
                    End Site
                    {
                      OFFSET -3.3938 0.000120697 -1.2408e-05
                    }
                  }
                }
                JOINT middle_01_r
                {
                  OFFSET -12.2441 -1.29372 -0.571132
                  CHANNELS 3 Zrotation Xrotation Yrotation
                  JOINT middle_02_r
                  {
                    OFFSET -4.64057 -0.000151476 0
                    CHANNELS 3 Zrotation Xrotation Yrotation
                    End Site
                    {
                      OFFSET -3.64891 3.29968e-05 0
                    }
                  }
                }
                JOINT pinky_01_r
                {
                  OFFSET -10.1406 -2.26335 -4.6431
                  CHANNELS 3 Zrotation Xrotation Yrotation
                  JOINT pinky_02_r
                  {
                    OFFSET -3.57105 -7.47617e-05 0
                    CHANNELS 3 Zrotation Xrotation Yrotation
                    End Site
                    {
                      OFFSET -2.98542 0.000317277 -3.50569e-05
                    }
                  }
                }
                JOINT ring_01_r
                {
                  OFFSET -11.498 -1.75377 -2.84692
                  CHANNELS 3 Zrotation Xrotation Yrotation
                  JOINT ring_02_r
                  {
                    OFFSET -4.42986 9.01051e-05 -1.75903e-05
                    CHANNELS 3 Zrotation Xrotation Yrotation
                    End Site
                    {
                      OFFSET -3.47666 7.19416e-05 0
                    }
                  }
                }
                JOINT thumb_01_r
                {
                  OFFSET -4.76212 -2.37512 2.5378
                  CHANNELS 3 Zrotation Xrotation Yrotation
                  JOINT thumb_02_r
                  {
                    OFFSET -3.86957 0.000108748 5.37723e-05
                    CHANNELS 3 Zrotation Xrotation Yrotation
                    End Site
                    {
                      OFFSET -4.06218 0 0
                    }
                  }
                }
              }
              JOINT lowerarm_twist_01_r
              {
                OFFSET -14 2.43319e-05 0
                CHANNELS 3 Zrotation Xrotation Yrotation
                End Site
                {
                  OFFSET 0 0 0
                }
              }
            }
            JOINT upperarm_twist_01_r
            {
              OFFSET -0.5 0 0
              CHANNELS 3 Zrotation Xrotation Yrotation
              End Site
              {
                OFFSET 0 0 0
              }
            }
          }
        }
        JOINT neck_01
        {
          OFFSET 16.559 -0.355327 0
          CHANNELS 3 Zrotation Xrotation Yrotation
          JOINT head
          {
            OFFSET 9.28361 0.364152 0
            CHANNELS 3 Zrotation Xrotation Yrotation
            End Site
            {
              OFFSET 0 0 0
            }
          }
        }
      }
    }
  }
  JOINT thigh_l
  {
    OFFSET -1.44883 -0.531424 -9.00583
    CHANNELS 3 Zrotation Xrotation Yrotation
    JOINT calf_l
    {
      OFFSET -42.5721 -0.0184092 0.00225403
      CHANNELS 3 Zrotation Xrotation Yrotation
      JOINT calf_twist_01_l
      {
        OFFSET -20.4768 0 0
        CHANNELS 3 Zrotation Xrotation Yrotation
        End Site
        {
          OFFSET 0 0 0
        }
      }
      JOINT foot_l
      {
        OFFSET -40.1967 1.29056e-05 0
        CHANNELS 3 Zrotation Xrotation Yrotation
        End Site
        {
          OFFSET -10.4538 -16.5779 0.0801559
        }
      }
    }
    JOINT thigh_twist_01_l
    {
      OFFSET -22.0942 0 0
      CHANNELS 3 Zrotation Xrotation Yrotation
      End Site
      {
        OFFSET 0 0 0
      }
    }
  }
  JOINT thigh_r
  {
    OFFSET -1.44865 -0.531429 9.00581
    CHANNELS 3 Zrotation Xrotation Yrotation
    JOINT calf_r
    {
      OFFSET 42.5721 0.0885695 0.00381123
      CHANNELS 3 Zrotation Xrotation Yrotation
      JOINT calf_twist_01_r
      {
        OFFSET 20.4769 0 0
        CHANNELS 3 Zrotation Xrotation Yrotation
        End Site
        {
          OFFSET 0 0 0
        }
      }
      JOINT foot_r
      {
        OFFSET 40.1969 0 -1.41234e-05
        CHANNELS 3 Zrotation Xrotation Yrotation
        End Site
        {
          OFFSET 10.4538 16.5778 -0.0801584
        }
      }
    }
    JOINT thigh_twist_01_r
    {
      OFFSET 22.0942 0 0
      CHANNELS 3 Zrotation Xrotation Yrotation
      End Site
      {
        OFFSET 0 0 0
      }
    }
  }
}
MOTION
Frames:	4
Frame Time:	0.00833333
-7.45916 91.6776 238.175 -101.286 -84.931 172.631 -0.930822 0.797971 -1.09296 5.09409 1.32598 -2.3594 -9.63007 1.61738 -2.17011 -3.40606 5.02851 90.1711 -32.3595 9.50922 77.6191 -28.9771 -0.026488 0.102459 -137.193 -81.6215 -141.191 26.5353 14.8342 -3.89375 11.9972 1.33777 -0.47542 23.061 1.90338 -7.04447 12.3209 -2.02455 1.13755 13.9094 -17.677 -19.9109 11.2325 1.06355 -1.31591 20.6697 -13.258 -11.2941 13.3242 0.30123 -1.66977 -71.3441 52.7838 96.7072 14.8757 1.58943 9.83706 -1.59028e-15 -9.54166e-15 -3.18055e-15 3.18055e-15 -6.36111e-15 3.18055e-15 174.872 1.61148 92.3987 -30.9027 -8.80664 66.8929 -35.5134 -0.0393079 0.122781 -126.791 -78.6095 -128.991 26.5353 14.8341 -3.89375 11.9972 1.33778 -0.475419 23.061 1.90338 -7.04447 12.3209 -2.02455 1.13755 13.9094 -17.677 -19.9109 11.2325 1.06355 -1.31591 20.6697 -13.258 -11.2941 13.3242 0.301229 -1.66977 -71.3441 52.7838 96.7072 14.8757 1.58944 9.83707 -2.41636e-15 -13.5104 3.27107e-15 -1.47021e-16 -19.9519 4.22955e-15 -1.7459 1.15387 -0.602072 21.6985 -0.326746 0.404465 24.9656 8.14295 -7.88678 -6.86615 -0.141377 -0.000288947 -0.871745 0.323558 -0.219088 2.58961 -2.96774 8.22129 -0.0563504 -5.43867 -0.000211991 162.519 -10.3502 7.54207 -2.31194 0.0299854 -6.52924e-05 -0.871727 0.323368 -0.219136 15.1796 11.5236 -5.68753 -0.0563562 -5.43887 -0.000163683 
-7.43509 91.5223 239.258 -100.707 -84.9175 173.237 -0.925842 0.781931 -1.08772 5.10364 1.2953 -2.34526 -9.62046 1.58514 -2.16002 -3.31581 5.06109 90.2727 -32.5531 9.70777 77.6728 -28.2453 -0.0251347 0.0999942 -138.642 -81.8825 -142.766 26.5353 14.8341 -3.89375 11.9972 1.33778 -0.475422 23.061 1.90338 -7.04447 12.3209 -2.02455 1.13755 13.9094 -17.677 -19.9109 11.2325 1.06355 -1.31591 20.6697 -13.258 -11.2941 13.3242 0.301229 -1.66977 -71.3441 52.7838 96.7072 14.8757 1.58943 9.83707 -6.36111e-15 -3.18055e-15 -1.59028e-15 1.59028e-15 6.36111e-15 5.56597e-15 174.89 1.59707 92.5525 -31.0879 -8.77992 66.742 -35.5365 -0.0393902 0.122929 -126.485 -78.6199 -128.633 26.5353 14.8342 -3.89375 11.9972 1.33777 -0.475423 23.061 1.90339 -7.04447 12.3209 -2.02455 1.13755 13.9094 -17.677 -19.9109 11.2325 1.06355 -1.31591 20.6697 -13.2579 -11.2941 13.3242 0.301224 -1.66977 -71.3441 52.7838 96.7072 14.8757 1.58944 9.83707 -1.03059e-14 -13.5104 -3.27107e-15 -4.91246e-15 -19.9519 -5.07546e-15 -1.72602 1.125 -0.609861 21.7797 -0.277702 0.332982 24.8253 7.1283 -7.70327 -5.81474 -0.147835 0.000155911 -0.871745 0.323558 -0.219088 2.59368 -2.10752 8.42793 -0.0563504 -5.43867 -0.000211991 161.976 -10.0769 7.45701 -2.57797 0.0245011 -1.7431e-05 -0.871727 0.323368 -0.219136 15.1512 11.2097 -5.35168 -0.0563562 -5.43887 -0.000163683 
-7.399 91.3733 240.371 -100.393 -84.9071 173.555 -0.920637 0.773781 -1.07693 5.11381 1.28156 -2.32201 -9.61035 1.56853 -2.13871 -3.22947 5.04714 90.3429 -32.7668 9.90138 77.7543 -27.5396 -0.0239917 0.0977806 -141.184 -82.0042 -145.478 26.5352 14.8341 -3.89375 11.9972 1.33777 -0.475421 23.061 1.90338 -7.04447 12.3209 -2.02455 1.13755 13.9094 -17.677 -19.9109 11.2325 1.06355 -1.31591 20.6697 -13.258 -11.2941 13.3242 0.301226 -1.66977 -71.3441 52.7838 96.7072 14.8757 1.58944 9.83707 -1.59028e-15 -9.54166e-15 7.95139e-16 -1.59028e-15 -6.36111e-15 7.15625e-15 174.899 1.65315 92.692 -31.3328 -8.70731 66.6178 -35.5181 -0.0393375 0.122835 -126.831 -78.5711 -128.992 26.5353 14.8341 -3.89375 11.9972 1.33777 -0.475424 23.061 1.90338 -7.04447 12.3209 -2.02455 1.13755 13.9094 -17.677 -19.9109 11.2325 1.06355 -1.31591 20.6697 -13.258 -11.2941 13.3242 0.301229 -1.66977 -71.3441 52.7838 96.7072 14.8757 1.58944 9.83707 7.88949e-15 -13.5104 6.54215e-15 -2.30921e-15 -19.9519 -6.76729e-15 -1.6848 1.09766 -0.648956 21.7897 -0.279992 0.311353 24.7556 6.41164 -7.52208 -5.25759 -0.156789 -0.000202211 -0.871745 0.323558 -0.219088 2.65823 -1.43037 8.77606 -0.0563504 -5.43867 -0.000211991 161.337 -9.72205 7.31279 -2.73401 0.0161882 2.63397e-06 -0.871727 0.323368 -0.219136 14.9679 10.791 -4.9358 -0.0563562 -5.43887 -0.000163683 
-7.36206 91.2301 241.511 -100.379 -84.9033 173.579 -0.917828 0.767389 -1.05725 5.11922 1.2735 -2.28143 -9.60512 1.55534 -2.0995 -3.1476 5.13458 90.3197 -33.2462 10.0136 77.9011 -26.6458 -0.0224643 0.0948648 -143.02 -81.8606 -147.311 26.5353 14.8342 -3.89376 11.9972 1.33777 -0.475421 23.061 1.90339 -7.04447 12.3209 -2.02456 1.13755 13.9094 -17.677 -19.9109 11.2325 1.06355 -1.31591 20.6697 -13.258 -11.2941 13.3242 0.301227 -1.66977 -71.3441 52.7838 96.7072 14.8757 1.58943 9.83706 -3.18055e-15 0 7.95139e-16 -3.18055e-15 3.18055e-15 8.74653e-15 174.908 1.67574 92.8312 -31.4823 -8.6275 66.5855 -35.376 -0.039164 0.122555 -126.897 -78.5481 -128.967 26.5353 14.8341 -3.89376 11.9972 1.33777 -0.475415 23.061 1.90339 -7.04447 12.3209 -2.02455 1.13755 13.9094 -17.677 -19.9109 11.2325 1.06355 -1.31591 20.6697 -13.258 -11.2941 13.3242 0.301229 -1.66977 -71.3441 52.7838 96.7072 14.8757 1.58944 9.83707 -2.41636e-15 -13.5104 3.27107e-15 3.03892e-15 -19.9519 -5.07546e-15 -1.65029 1.11695 -0.78681 21.8173 -0.336063 0.371232 24.7656 5.99291 -7.35912 -5.24349 -0.165833 0.00024401 -0.871745 0.323558 -0.219088 2.92436 -0.984148 9.09582 -0.0563504 -5.43867 -0.000211991 160.891 -9.07518 7.19592 -3.42915 0.0132335 -1.37776e-05 -0.871727 0.323368 -0.219136 14.9699 10.047 -4.43409 -0.0563562 -5.43887 -0.000163683 
